<mxfile host="app.diagrams.net" modified="2022-02-03T03:59:23.276Z" agent="5.0 (Macintosh; Intel Mac OS X 10_15_7) AppleWebKit/537.36 (KHTML, like Gecko) Chrome/97.0.4692.99 Safari/537.36" etag="WEN9AXq_aFsgXJ8cBvge" version="16.5.3" type="github">
  <diagram id="R2lEEEUBdFMjLlhIrx00" name="Page-1">
    <mxGraphModel dx="1620" dy="1053" grid="1" gridSize="10" guides="1" tooltips="1" connect="1" arrows="1" fold="1" page="1" pageScale="1" pageWidth="850" pageHeight="1100" math="0" shadow="0" extFonts="Permanent Marker^https://fonts.googleapis.com/css?family=Permanent+Marker">
      <root>
        <mxCell id="0" />
        <mxCell id="1" parent="0" />
        <mxCell id="KGoRndyZFCsm3Irk2Cxt-1" value="scooter" style="rounded=0;whiteSpace=wrap;html=1;" parent="1" vertex="1">
          <mxGeometry x="560" y="330" width="120" height="60" as="geometry" />
        </mxCell>
        <mxCell id="KGoRndyZFCsm3Irk2Cxt-4" value="" style="endArrow=none;html=1;rounded=0;" parent="1" edge="1">
          <mxGeometry width="50" height="50" relative="1" as="geometry">
            <mxPoint x="630" y="390" as="sourcePoint" />
            <mxPoint x="630" y="660" as="targetPoint" />
            <Array as="points">
              <mxPoint x="630" y="480" />
            </Array>
          </mxGeometry>
        </mxCell>
        <mxCell id="KGoRndyZFCsm3Irk2Cxt-5" value="" style="endArrow=none;html=1;rounded=0;" parent="1" edge="1">
          <mxGeometry width="50" height="50" relative="1" as="geometry">
            <mxPoint x="630" y="439.17" as="sourcePoint" />
            <mxPoint x="690" y="439.17" as="targetPoint" />
          </mxGeometry>
        </mxCell>
        <mxCell id="KGoRndyZFCsm3Irk2Cxt-6" value="" style="endArrow=none;html=1;rounded=0;" parent="1" edge="1">
          <mxGeometry width="50" height="50" relative="1" as="geometry">
            <mxPoint x="680" y="536.67" as="sourcePoint" />
            <mxPoint x="630" y="536.67" as="targetPoint" />
          </mxGeometry>
        </mxCell>
        <mxCell id="KGoRndyZFCsm3Irk2Cxt-7" value="scooter #" style="ellipse;whiteSpace=wrap;html=1;" parent="1" vertex="1">
          <mxGeometry x="690" y="410" width="100" height="60" as="geometry" />
        </mxCell>
        <mxCell id="KGoRndyZFCsm3Irk2Cxt-9" value="model number" style="ellipse;whiteSpace=wrap;html=1;" parent="1" vertex="1">
          <mxGeometry x="680" y="510" width="110" height="55" as="geometry" />
        </mxCell>
        <mxCell id="KGoRndyZFCsm3Irk2Cxt-11" value="date of start of service" style="ellipse;whiteSpace=wrap;html=1;" parent="1" vertex="1">
          <mxGeometry x="472.5" y="455" width="107.5" height="65" as="geometry" />
        </mxCell>
        <mxCell id="KGoRndyZFCsm3Irk2Cxt-12" value="trip" style="rounded=0;whiteSpace=wrap;html=1;" parent="1" vertex="1">
          <mxGeometry x="410" y="170" width="120" height="60" as="geometry" />
        </mxCell>
        <mxCell id="KGoRndyZFCsm3Irk2Cxt-17" value="is used for&amp;nbsp;" style="rhombus;whiteSpace=wrap;html=1;" parent="1" vertex="1">
          <mxGeometry x="507.5" y="250" width="70" height="58.62" as="geometry" />
        </mxCell>
        <mxCell id="qKLXClvhW7ocas5H0gz3-1" value="trip #" style="ellipse;whiteSpace=wrap;html=1;" vertex="1" parent="1">
          <mxGeometry x="280" y="101.38" width="100" height="50" as="geometry" />
        </mxCell>
        <mxCell id="qKLXClvhW7ocas5H0gz3-2" value="" style="endArrow=none;html=1;rounded=0;" edge="1" parent="1">
          <mxGeometry width="50" height="50" relative="1" as="geometry">
            <mxPoint x="20" y="201" as="sourcePoint" />
            <mxPoint x="410" y="200.88" as="targetPoint" />
          </mxGeometry>
        </mxCell>
        <mxCell id="qKLXClvhW7ocas5H0gz3-5" value="" style="endArrow=none;html=1;rounded=0;entryX=0.5;entryY=1;entryDx=0;entryDy=0;" edge="1" parent="1">
          <mxGeometry width="50" height="50" relative="1" as="geometry">
            <mxPoint x="330" y="201.38" as="sourcePoint" />
            <mxPoint x="330" y="151.3800000000001" as="targetPoint" />
          </mxGeometry>
        </mxCell>
        <mxCell id="qKLXClvhW7ocas5H0gz3-6" value="" style="endArrow=none;html=1;rounded=0;" edge="1" parent="1">
          <mxGeometry width="50" height="50" relative="1" as="geometry">
            <mxPoint x="280" y="241.38" as="sourcePoint" />
            <mxPoint x="280" y="201.38" as="targetPoint" />
            <Array as="points">
              <mxPoint x="280" y="231.38" />
            </Array>
          </mxGeometry>
        </mxCell>
        <mxCell id="qKLXClvhW7ocas5H0gz3-7" value="hourly rate" style="ellipse;whiteSpace=wrap;html=1;" vertex="1" parent="1">
          <mxGeometry x="230" y="241.38" width="100" height="50" as="geometry" />
        </mxCell>
        <mxCell id="qKLXClvhW7ocas5H0gz3-8" value="pickup location&amp;nbsp;" style="ellipse;whiteSpace=wrap;html=1;" vertex="1" parent="1">
          <mxGeometry x="170" y="101.38" width="100" height="50" as="geometry" />
        </mxCell>
        <mxCell id="qKLXClvhW7ocas5H0gz3-9" value="" style="endArrow=none;html=1;rounded=0;entryX=0.5;entryY=1;entryDx=0;entryDy=0;" edge="1" parent="1">
          <mxGeometry width="50" height="50" relative="1" as="geometry">
            <mxPoint x="219" y="201.38" as="sourcePoint" />
            <mxPoint x="219" y="151.38" as="targetPoint" />
          </mxGeometry>
        </mxCell>
        <mxCell id="qKLXClvhW7ocas5H0gz3-10" value="" style="endArrow=none;html=1;rounded=0;" edge="1" parent="1">
          <mxGeometry width="50" height="50" relative="1" as="geometry">
            <mxPoint x="170" y="241.38" as="sourcePoint" />
            <mxPoint x="170" y="201.38" as="targetPoint" />
            <Array as="points">
              <mxPoint x="170" y="231.38" />
            </Array>
          </mxGeometry>
        </mxCell>
        <mxCell id="qKLXClvhW7ocas5H0gz3-11" value="pick-up time&amp;nbsp;" style="ellipse;whiteSpace=wrap;html=1;" vertex="1" parent="1">
          <mxGeometry x="120" y="241.38" width="100" height="50" as="geometry" />
        </mxCell>
        <mxCell id="qKLXClvhW7ocas5H0gz3-15" value="" style="endArrow=none;html=1;rounded=0;entryX=0.5;entryY=1;entryDx=0;entryDy=0;" edge="1" parent="1">
          <mxGeometry width="50" height="50" relative="1" as="geometry">
            <mxPoint x="100" y="201.38" as="sourcePoint" />
            <mxPoint x="100" y="151.38" as="targetPoint" />
          </mxGeometry>
        </mxCell>
        <mxCell id="qKLXClvhW7ocas5H0gz3-16" value="drop-off location&amp;nbsp;" style="ellipse;whiteSpace=wrap;html=1;" vertex="1" parent="1">
          <mxGeometry x="50" y="101.38" width="100" height="50" as="geometry" />
        </mxCell>
        <mxCell id="qKLXClvhW7ocas5H0gz3-17" value="" style="endArrow=none;html=1;rounded=0;entryX=0.5;entryY=1;entryDx=0;entryDy=0;" edge="1" parent="1">
          <mxGeometry width="50" height="50" relative="1" as="geometry">
            <mxPoint x="50" y="251.38" as="sourcePoint" />
            <mxPoint x="50" y="201.38" as="targetPoint" />
          </mxGeometry>
        </mxCell>
        <mxCell id="qKLXClvhW7ocas5H0gz3-18" value="drop-off time" style="ellipse;whiteSpace=wrap;html=1;" vertex="1" parent="1">
          <mxGeometry y="250" width="100" height="50" as="geometry" />
        </mxCell>
        <mxCell id="qKLXClvhW7ocas5H0gz3-19" value="&amp;nbsp;customer" style="rounded=0;whiteSpace=wrap;html=1;" vertex="1" parent="1">
          <mxGeometry x="200" y="395" width="120" height="60" as="geometry" />
        </mxCell>
        <mxCell id="qKLXClvhW7ocas5H0gz3-20" value="" style="endArrow=none;html=1;rounded=0;entryX=0.5;entryY=1;entryDx=0;entryDy=0;" edge="1" parent="1">
          <mxGeometry width="50" height="50" relative="1" as="geometry">
            <mxPoint x="240" y="675" as="sourcePoint" />
            <mxPoint x="240" y="455" as="targetPoint" />
          </mxGeometry>
        </mxCell>
        <mxCell id="qKLXClvhW7ocas5H0gz3-21" value="first name&amp;nbsp;" style="ellipse;whiteSpace=wrap;html=1;" vertex="1" parent="1">
          <mxGeometry x="300" y="550" width="100" height="50" as="geometry" />
        </mxCell>
        <mxCell id="qKLXClvhW7ocas5H0gz3-22" value="" style="endArrow=none;html=1;rounded=0;" edge="1" parent="1">
          <mxGeometry width="50" height="50" relative="1" as="geometry">
            <mxPoint x="240" y="500" as="sourcePoint" />
            <mxPoint x="280" y="500" as="targetPoint" />
          </mxGeometry>
        </mxCell>
        <mxCell id="qKLXClvhW7ocas5H0gz3-25" value="" style="line;strokeWidth=1;rotatable=0;dashed=0;labelPosition=right;align=left;verticalAlign=middle;spacingTop=0;spacingLeft=6;points=[];portConstraint=eastwest;" vertex="1" parent="1">
          <mxGeometry x="180" y="525" width="60" height="10" as="geometry" />
        </mxCell>
        <mxCell id="qKLXClvhW7ocas5H0gz3-26" value="last name&amp;nbsp;" style="ellipse;whiteSpace=wrap;html=1;" vertex="1" parent="1">
          <mxGeometry x="80" y="500" width="100" height="50" as="geometry" />
        </mxCell>
        <mxCell id="qKLXClvhW7ocas5H0gz3-27" value="" style="line;strokeWidth=1;rotatable=0;dashed=0;labelPosition=right;align=left;verticalAlign=middle;spacingTop=0;spacingLeft=6;points=[];portConstraint=eastwest;" vertex="1" parent="1">
          <mxGeometry x="240" y="565" width="60" height="10" as="geometry" />
        </mxCell>
        <mxCell id="qKLXClvhW7ocas5H0gz3-28" value="customer ID" style="ellipse;whiteSpace=wrap;html=1;" vertex="1" parent="1">
          <mxGeometry x="280" y="475" width="100" height="50" as="geometry" />
        </mxCell>
        <mxCell id="qKLXClvhW7ocas5H0gz3-31" value="" style="endArrow=none;html=1;rounded=0;entryX=0.433;entryY=1.017;entryDx=0;entryDy=0;entryPerimeter=0;startArrow=none;exitX=1;exitY=0.5;exitDx=0;exitDy=0;" edge="1" parent="1" source="qKLXClvhW7ocas5H0gz3-33" target="KGoRndyZFCsm3Irk2Cxt-1">
          <mxGeometry width="50" height="50" relative="1" as="geometry">
            <mxPoint x="490" y="410" as="sourcePoint" />
            <mxPoint x="624.5" y="225" as="targetPoint" />
          </mxGeometry>
        </mxCell>
        <mxCell id="qKLXClvhW7ocas5H0gz3-33" value="rent&lt;br&gt;" style="shape=rhombus;perimeter=rhombusPerimeter;whiteSpace=wrap;html=1;align=center;rotation=-15;" vertex="1" parent="1">
          <mxGeometry x="425" y="390" width="60" height="55" as="geometry" />
        </mxCell>
        <mxCell id="qKLXClvhW7ocas5H0gz3-34" value="" style="endArrow=none;html=1;rounded=0;entryX=0;entryY=0.5;entryDx=0;entryDy=0;exitX=1;exitY=0.25;exitDx=0;exitDy=0;" edge="1" parent="1" source="qKLXClvhW7ocas5H0gz3-19" target="qKLXClvhW7ocas5H0gz3-33">
          <mxGeometry width="50" height="50" relative="1" as="geometry">
            <mxPoint x="625" y="310" as="sourcePoint" />
            <mxPoint x="771.96" y="231.01999999999998" as="targetPoint" />
          </mxGeometry>
        </mxCell>
        <mxCell id="qKLXClvhW7ocas5H0gz3-35" value="" style="endArrow=none;html=1;rounded=0;exitX=0.75;exitY=0;exitDx=0;exitDy=0;entryX=0.5;entryY=1;entryDx=0;entryDy=0;" edge="1" parent="1" source="qKLXClvhW7ocas5H0gz3-19" target="qKLXClvhW7ocas5H0gz3-37">
          <mxGeometry width="50" height="50" relative="1" as="geometry">
            <mxPoint x="436.13" y="350" as="sourcePoint" />
            <mxPoint x="382.91999999999996" y="330" as="targetPoint" />
          </mxGeometry>
        </mxCell>
        <mxCell id="qKLXClvhW7ocas5H0gz3-37" value="takes&amp;nbsp;" style="shape=rhombus;perimeter=rhombusPerimeter;whiteSpace=wrap;html=1;align=center;rotation=30;" vertex="1" parent="1">
          <mxGeometry x="340" y="270" width="60" height="60" as="geometry" />
        </mxCell>
        <mxCell id="qKLXClvhW7ocas5H0gz3-38" value="" style="endArrow=none;html=1;rounded=0;entryX=0.25;entryY=1;entryDx=0;entryDy=0;exitX=0.5;exitY=0;exitDx=0;exitDy=0;" edge="1" parent="1" source="qKLXClvhW7ocas5H0gz3-37" target="KGoRndyZFCsm3Irk2Cxt-12">
          <mxGeometry width="50" height="50" relative="1" as="geometry">
            <mxPoint x="526.6" y="260" as="sourcePoint" />
            <mxPoint x="473.39" y="240" as="targetPoint" />
          </mxGeometry>
        </mxCell>
        <mxCell id="qKLXClvhW7ocas5H0gz3-39" value="email (for receipts)" style="ellipse;whiteSpace=wrap;html=1;" vertex="1" parent="1">
          <mxGeometry x="110" y="575" width="100" height="50" as="geometry" />
        </mxCell>
        <mxCell id="qKLXClvhW7ocas5H0gz3-40" value="" style="line;strokeWidth=1;rotatable=0;dashed=0;labelPosition=right;align=left;verticalAlign=middle;spacingTop=0;spacingLeft=6;points=[];portConstraint=eastwest;" vertex="1" parent="1">
          <mxGeometry x="210" y="595" width="30" height="10" as="geometry" />
        </mxCell>
        <mxCell id="qKLXClvhW7ocas5H0gz3-41" value="payment information&amp;nbsp;" style="ellipse;whiteSpace=wrap;html=1;" vertex="1" parent="1">
          <mxGeometry x="300" y="610" width="100" height="50" as="geometry" />
        </mxCell>
        <mxCell id="qKLXClvhW7ocas5H0gz3-42" value="" style="line;strokeWidth=1;rotatable=0;dashed=0;labelPosition=right;align=left;verticalAlign=middle;spacingTop=0;spacingLeft=6;points=[];portConstraint=eastwest;" vertex="1" parent="1">
          <mxGeometry x="240" y="630" width="60" height="10" as="geometry" />
        </mxCell>
        <mxCell id="qKLXClvhW7ocas5H0gz3-49" value="" style="endArrow=none;html=1;rounded=0;entryX=0;entryY=0;entryDx=0;entryDy=0;exitX=0.75;exitY=1;exitDx=0;exitDy=0;" edge="1" parent="1" source="KGoRndyZFCsm3Irk2Cxt-12" target="KGoRndyZFCsm3Irk2Cxt-17">
          <mxGeometry width="50" height="50" relative="1" as="geometry">
            <mxPoint x="509.5196189432336" y="241.3796189432336" as="sourcePoint" />
            <mxPoint x="565.49" y="181.87" as="targetPoint" />
          </mxGeometry>
        </mxCell>
        <mxCell id="qKLXClvhW7ocas5H0gz3-50" value="" style="endArrow=none;html=1;rounded=0;entryX=0.25;entryY=0;entryDx=0;entryDy=0;exitX=1;exitY=1;exitDx=0;exitDy=0;" edge="1" parent="1" source="KGoRndyZFCsm3Irk2Cxt-17" target="KGoRndyZFCsm3Irk2Cxt-1">
          <mxGeometry width="50" height="50" relative="1" as="geometry">
            <mxPoint x="560" y="320" as="sourcePoint" />
            <mxPoint x="605.97" y="260" as="targetPoint" />
          </mxGeometry>
        </mxCell>
        <mxCell id="qKLXClvhW7ocas5H0gz3-56" value="" style="endArrow=none;html=1;rounded=0;" edge="1" parent="1">
          <mxGeometry width="50" height="50" relative="1" as="geometry">
            <mxPoint x="629" y="489.17" as="sourcePoint" />
            <mxPoint x="584" y="489.5" as="targetPoint" />
          </mxGeometry>
        </mxCell>
      </root>
    </mxGraphModel>
  </diagram>
</mxfile>
